<?xml version="1.0" encoding="utf-8"?>
<!-- Generator: Adobe Illustrator 21.1.0, SVG Export Plug-In . SVG Version: 6.00 Build 0)  -->
<svg version="1.1" id="Layer_1" xmlns="http://www.w3.org/2000/svg" xmlns:xlink="http://www.w3.org/1999/xlink" x="0px" y="0px"
	 viewBox="0 0 438.8 752" style="enable-background:new 0 0 438.8 752;" xml:space="preserve">
<style type="text/css">
	.st0{fill:#FCDD00;}
	.st1{fill:#CECECE;}
	.st2{fill:#171717;}
	.st3{fill:url(#SVGID_1_);}
	.st4{fill:url(#SVGID_2_);}
	.st5{fill:url(#SVGID_3_);}
	.st6{fill:url(#SVGID_4_);}
	.st7{fill:url(#SVGID_5_);}
	.st8{fill:#242225;}
	.st9{fill:url(#SVGID_6_);}
	.st10{fill:#535453;}
	.st11{fill:url(#SVGID_7_);}
	.st12{fill:url(#SVGID_8_);}
	.st13{fill:url(#SVGID_9_);}
	.st14{fill:#3D3B40;}
	.st15{fill:#D3D3D3;}
	.st16{fill:url(#SVGID_10_);}
</style>
<g>
	
		<ellipse transform="matrix(0.4091 -0.9125 0.9125 0.4091 29.3046 380.8693)" class="st2" cx="308.7" cy="167.8" rx="130" ry="130"/>
	<linearGradient id="SVGID_1_" gradientUnits="userSpaceOnUse" x1="220.4732" y1="476.5823" x2="357.5842" y2="511.8682">
		<stop  offset="4.950495e-03" style="stop-color:#000000"/>
		<stop  offset="0.2205" style="stop-color:#0F0F10"/>
		<stop  offset="0.4202" style="stop-color:#2D2D2E"/>
		<stop  offset="0.5396" style="stop-color:#414042"/>
		<stop  offset="0.6471" style="stop-color:#2B2B2C"/>
		<stop  offset="0.8103" style="stop-color:#0E0E0E"/>
		<stop  offset="1" style="stop-color:#000000"/>
	</linearGradient>
	<path class="st3" d="M120.3,676.8c-3.4-1.5-6.3-4.1-8.2-7.6c-4.6-8.5-1.4-19.1,7.1-23.7c33-17.9,126-80.2,121.1-130.5
		c-7.1-72.5-17.2-183.9-17.3-185c-0.3-3,0.2-6,1.5-8.8l22-49.2c4-8.8,14.3-12.8,23.1-8.8c8.8,4,12.8,14.3,8.8,23.1l-20.2,45
		c2,21.7,10.6,116.2,16.9,180.3c8,82.5-124.2,156.5-139.3,164.7C130.9,679,125.1,679,120.3,676.8z"/>
	<linearGradient id="SVGID_2_" gradientUnits="userSpaceOnUse" x1="306.0392" y1="172.5214" x2="430.9051" y2="-45.0284">
		<stop  offset="4.950495e-03" style="stop-color:#000000"/>
		<stop  offset="0.2205" style="stop-color:#0F0F10"/>
		<stop  offset="0.4202" style="stop-color:#2D2D2E"/>
		<stop  offset="0.5396" style="stop-color:#414042"/>
		<stop  offset="0.6471" style="stop-color:#2B2B2C"/>
		<stop  offset="0.8103" style="stop-color:#0E0E0E"/>
		<stop  offset="1" style="stop-color:#000000"/>
	</linearGradient>
	<circle class="st4" cx="308.7" cy="167.8" r="121.9"/>
	<linearGradient id="SVGID_3_" gradientUnits="userSpaceOnUse" x1="356.5937" y1="78.8909" x2="273.3497" y2="247.0951">
		<stop  offset="0" style="stop-color:#FFFFFF"/>
		<stop  offset="1" style="stop-color:#000000"/>
	</linearGradient>
	<polygon class="st5" points="296.8,247.6 263.3,232.6 325.9,93 359.4,108.1 	"/>
	<linearGradient id="SVGID_4_" gradientUnits="userSpaceOnUse" x1="204.1373" y1="232.3615" x2="304.5449" y2="278.7035">
		<stop  offset="0" style="stop-color:#FFFFFF"/>
		<stop  offset="1" style="stop-color:#000000"/>
	</linearGradient>
	<polygon class="st6" points="275.6,294.9 242.1,279.9 264.2,230.5 297.8,245.6 	"/>
	<linearGradient id="SVGID_5_" gradientUnits="userSpaceOnUse" x1="236.6895" y1="176.3079" x2="390.3046" y2="155.7115">
		<stop  offset="0" style="stop-color:#FFFFFF"/>
		<stop  offset="1" style="stop-color:#000000"/>
	</linearGradient>
	<circle class="st7" cx="309.3" cy="166.6" r="52.1"/>
	
		<ellipse transform="matrix(0.4091 -0.9125 0.9125 0.4091 30.7579 380.6446)" class="st8" cx="309.3" cy="166.6" rx="41.3" ry="41.3"/>
	<linearGradient id="SVGID_6_" gradientUnits="userSpaceOnUse" x1="285.7893" y1="194.3764" x2="375.0405" y2="88.8196">
		<stop  offset="4.950495e-03" style="stop-color:#000000"/>
		<stop  offset="0.2205" style="stop-color:#0F0F10"/>
		<stop  offset="0.4202" style="stop-color:#2D2D2E"/>
		<stop  offset="0.5396" style="stop-color:#414042"/>
		<stop  offset="0.6471" style="stop-color:#2B2B2C"/>
		<stop  offset="0.8103" style="stop-color:#0E0E0E"/>
		<stop  offset="1" style="stop-color:#000000"/>
	</linearGradient>
	<circle class="st9" cx="309.3" cy="166.6" r="28.3"/>
	<polygon class="st10" points="359.4,108.1 378.7,104.4 383.6,93.4 320.7,65.2 316,75.8 325.8,93 	"/>
	<linearGradient id="SVGID_7_" gradientUnits="userSpaceOnUse" x1="302.5978" y1="19.0303" x2="403.0055" y2="65.3723">
		<stop  offset="0" style="stop-color:#FFFFFF"/>
		<stop  offset="1" style="stop-color:#000000"/>
	</linearGradient>
	<polygon class="st11" points="382.2,96.6 319.3,68.4 349.9,0 412.8,28.2 	"/>
	<linearGradient id="SVGID_8_" gradientUnits="userSpaceOnUse" x1="367.9552" y1="203.0136" x2="414.7263" y2="203.0136">
		<stop  offset="0" style="stop-color:#FFFFFF"/>
		<stop  offset="1" style="stop-color:#000000"/>
	</linearGradient>
	<path class="st12" d="M402.1,212.1c-5,11.2-18.2,16.2-29.4,11.2c-11.2-5-16.2-18.2-11.2-29.4c5-11.2,18.2-16.2,29.4-11.2
		C402.1,187.8,407.1,200.9,402.1,212.1z"/>
	<linearGradient id="SVGID_9_" gradientUnits="userSpaceOnUse" x1="370.2463" y1="232.4297" x2="396.8501" y2="164.6331">
		<stop  offset="4.950495e-03" style="stop-color:#000000"/>
		<stop  offset="0.2205" style="stop-color:#0F0F10"/>
		<stop  offset="0.4202" style="stop-color:#2D2D2E"/>
		<stop  offset="0.5396" style="stop-color:#414042"/>
		<stop  offset="0.6471" style="stop-color:#2B2B2C"/>
		<stop  offset="0.8103" style="stop-color:#0E0E0E"/>
		<stop  offset="1" style="stop-color:#000000"/>
	</linearGradient>
	<circle class="st13" cx="381.8" cy="203" r="13.8"/>
	
		<rect x="94" y="653.9" transform="matrix(0.8505 -0.5259 0.5259 0.8505 -336.1411 158.8443)" class="st14" width="34.8" height="33.8"/>
	
		<rect x="123.2" y="643.5" transform="matrix(0.8504 -0.5262 0.5262 0.8504 -329.3768 165.3708)" class="st15" width="5.7" height="36.8"/>
	<linearGradient id="SVGID_10_" gradientUnits="userSpaceOnUse" x1="22.5455" y1="726.6024" x2="146.9823" y2="646.7912">
		<stop  offset="4.950495e-03" style="stop-color:#000000"/>
		<stop  offset="0.2205" style="stop-color:#0F0F10"/>
		<stop  offset="0.4202" style="stop-color:#2D2D2E"/>
		<stop  offset="0.5396" style="stop-color:#414042"/>
		<stop  offset="0.6471" style="stop-color:#2B2B2C"/>
		<stop  offset="0.8103" style="stop-color:#0E0E0E"/>
		<stop  offset="1" style="stop-color:#000000"/>
	</linearGradient>
	<path class="st16" d="M94,654.1L0,712.2L24.6,752l94-58.1L94,654.1z M24.8,707.2l23-14.2l5.1,8.2l-23,14.2L24.8,707.2z M40.1,731.9
		l-5.1-8.2l23-14.2l5.1,8.2L40.1,731.9z"/>
</g>
</svg>
