<?xml version="1.0" encoding="utf-8"?>
<!-- Generator: Adobe Illustrator 21.1.0, SVG Export Plug-In . SVG Version: 6.00 Build 0)  -->
<svg version="1.1" id="Layer_1" xmlns="http://www.w3.org/2000/svg" xmlns:xlink="http://www.w3.org/1999/xlink" x="0px" y="0px"
	 viewBox="0 0 209.1 167.2" style="enable-background:new 0 0 209.1 167.2;" xml:space="preserve">
<style type="text/css">
	.st0{fill:#FCDD00;}
	.st1{fill:#CECECE;}
</style>
<g>
	<rect x="17.4" y="13.9" class="st0" width="10.4" height="139.4"/>
	<rect x="181.2" y="13.9" class="st0" width="10.4" height="139.4"/>
	<rect x="198.6" y="27.9" class="st0" width="10.4" height="111.5"/>
	<rect y="27.9" class="st0" width="10.4" height="111.5"/>
	<path class="st0" d="M34.8,167.2h139.4V0H34.8V167.2z M68,104.5c6.1,0,11.6,2.2,15.7,5.9V41.8c0-1.7,1.3-3.2,2.9-3.5l66.2-10.4
		c1-0.2,2,0.1,2.8,0.8c0.8,0.6,1.2,1.6,1.2,2.6v73.2c0,11.5-10.2,20.9-22.6,20.9c-12.5,0-22.6-9.4-22.6-20.9
		c0-11.5,10.2-20.9,22.6-20.9c6.1,0,11.6,2.2,15.7,5.9V56.3l-59.2,9.3v60.1c0,0,0,0.1,0,0.1c-0.3,11.3-10.3,20.4-22.6,20.4
		c-12.5,0-22.7-9.4-22.7-20.9C45.3,113.9,55.5,104.5,68,104.5L68,104.5z M68,104.5"/>
</g>
</svg>
