<?xml version="1.0" encoding="utf-8"?>
<!-- Generator: Adobe Illustrator 21.1.0, SVG Export Plug-In . SVG Version: 6.00 Build 0)  -->
<svg version="1.1" id="Layer_1" xmlns="http://www.w3.org/2000/svg" xmlns:xlink="http://www.w3.org/1999/xlink" x="0px" y="0px"
	 viewBox="0 0 162.2 162.2" style="enable-background:new 0 0 162.2 162.2;" xml:space="preserve">
<style type="text/css">
	.st0{fill:#FCDD00;}
	.st1{fill:#CECECE;}
</style>
<path class="st1" d="M151.3,40.6c-22.4-38.8-72-52.1-110.8-29.7c-38.8,22.4-52.1,72-29.7,110.8c22.4,38.8,72,52.1,110.8,29.7
	C160.4,128.9,173.7,79.3,151.3,40.6L151.3,40.6z M113.5,137.3c-31,17.9-70.7,7.3-88.6-23.7C7,82.5,17.6,42.8,48.7,24.9
	c31-17.9,70.7-7.3,88.6,23.7C155.2,79.7,144.5,119.4,113.5,137.3L113.5,137.3z M110.3,77.8L67.8,53c-3.9-2.3-7-0.5-7,4l0.2,49.2
	c0,4.5,3.2,6.3,7.1,4.1l42.1-24.3C114.1,83.7,114.2,80.1,110.3,77.8L110.3,77.8z M110.3,77.8"/>
</svg>
