<?xml version="1.0" encoding="utf-8"?>
<!-- Generator: Adobe Illustrator 21.1.0, SVG Export Plug-In . SVG Version: 6.00 Build 0)  -->
<svg version="1.1" id="Layer_1" xmlns="http://www.w3.org/2000/svg" xmlns:xlink="http://www.w3.org/1999/xlink" x="0px" y="0px"
	 viewBox="0 0 816.5 632.3" style="enable-background:new 0 0 816.5 632.3;" xml:space="preserve">
<style type="text/css">
	.st0{fill:#4D4D4D;}
	.st1{fill-rule:evenodd;clip-rule:evenodd;fill:#4D4D4D;}
	.st2{fill:#383838;}
	.st3{fill:#333333;}
	.st4{display:none;fill:#CEC920;}
	.st5{fill-rule:evenodd;clip-rule:evenodd;}
	.st6{fill:#CEC920;}
</style>
<text transform="matrix(1 0 0 1 -287.6147 1234.0469)" class="st0" style="font-family:'ChromeBlack-Normal'; font-size:130.2813px;">yt</text>
<text transform="matrix(1 0 0 1 755.8238 1387.709)" class="st0" style="font-family:'ChromeBlack-Normal'; font-size:46.0796px;">factory</text>
<text transform="matrix(1 0 0 1 916.8257 1416.2236)" class="st0" style="font-family:'Poppins-Medium'; font-size:10.8557px;">Video converter</text>
<g>
	<g>
		<path class="st0" d="M288.9,1356.8c0.6,0.5,1,1,1.4,1.6c0.3,0.6,0.6,1.3,0.6,1.9c0.1,0.7,0,1.4-0.2,2.1c-0.2,0.7-0.5,1.3-0.9,1.9
			l-14.7,18.5v18.2c0,0.7-0.1,1.4-0.4,2.1c-0.3,0.6-0.7,1.2-1.1,1.7c-0.5,0.5-1,0.9-1.7,1.1c-0.6,0.3-1.3,0.4-2.1,0.4
			c-0.7,0-1.4-0.1-2.1-0.4c-0.6-0.3-1.2-0.7-1.7-1.1c-0.5-0.5-0.9-1.1-1.1-1.7c-0.3-0.6-0.4-1.3-0.4-2.1v-18.2l-14.5-18.5
			c-0.5-0.6-0.8-1.2-1-1.9c-0.2-0.7-0.2-1.4-0.1-2.1c0.1-0.7,0.3-1.3,0.6-1.9c0.3-0.6,0.8-1.2,1.4-1.6c0.6-0.4,1.2-0.8,1.9-0.9
			c0.7-0.2,1.4-0.2,2-0.2c0.7,0.1,1.3,0.3,1.9,0.6c0.6,0.3,1.1,0.8,1.6,1.4l11.5,14.7l11.6-14.7c0.4-0.6,1-1,1.6-1.4
			c0.6-0.3,1.3-0.5,2-0.6c0.7-0.1,1.4,0,2,0.2C287.7,1356,288.3,1356.3,288.9,1356.8z"/>
		<path class="st0" d="M336.2,1356.9c0.6,0.3,1.2,0.6,1.6,1.1c0.5,0.5,0.8,1,1.1,1.6c0.3,0.6,0.4,1.3,0.4,2s-0.1,1.4-0.4,2
			c-0.3,0.6-0.6,1.2-1.1,1.6c-0.5,0.5-1,0.8-1.6,1.1c-0.6,0.3-1.3,0.4-2,0.4h-9.7v33.5c0,0.7-0.1,1.4-0.4,2
			c-0.3,0.6-0.6,1.2-1.1,1.6c-0.5,0.5-1,0.8-1.6,1.1c-0.6,0.3-1.3,0.4-2,0.4s-1.4-0.1-2-0.4c-0.6-0.3-1.2-0.6-1.7-1.1
			c-0.5-0.5-0.8-1-1.1-1.6c-0.3-0.6-0.4-1.3-0.4-2v-33.5h-9.7c-0.7,0-1.4-0.1-2-0.4c-0.6-0.3-1.2-0.6-1.6-1.1
			c-0.5-0.5-0.8-1-1.1-1.6c-0.3-0.6-0.4-1.3-0.4-2s0.1-1.4,0.4-2c0.3-0.6,0.6-1.2,1.1-1.6c0.5-0.5,1-0.8,1.6-1.1
			c0.6-0.3,1.3-0.4,2-0.4h29.6C334.9,1356.5,335.6,1356.7,336.2,1356.9z"/>
	</g>
	<g>
		<g>
			<path class="st0" d="M186.2,1506c0.6,0.2,1,0.6,1.5,1c0.4,0.4,0.7,0.9,1,1.4c0.2,0.6,0.3,1.1,0.3,1.7c0,0.6-0.1,1.2-0.3,1.7
				c-0.2,0.6-0.6,1-1,1.5c-0.4,0.4-0.9,0.7-1.5,1c-0.6,0.2-1.1,0.3-1.7,0.3h-16.9v12.4c0,0.6-0.1,1.2-0.3,1.8c-0.2,0.6-0.6,1-1,1.4
				c-0.4,0.4-0.9,0.7-1.4,1c-0.6,0.2-1.1,0.3-1.7,0.3c-1.3,0-2.4-0.4-3.2-1.3c-0.9-0.9-1.3-1.9-1.3-3.2v-33.8c0-0.6,0.1-1.2,0.3-1.7
				c0.2-0.6,0.6-1,1-1.5c0.4-0.4,0.9-0.7,1.4-1c0.6-0.2,1.1-0.3,1.8-0.3h21.4c0.6,0,1.2,0.1,1.8,0.3c0.6,0.2,1,0.6,1.4,1
				c0.4,0.4,0.7,0.9,1,1.5c0.2,0.6,0.3,1.1,0.3,1.7c0,0.6-0.1,1.2-0.3,1.7c-0.2,0.6-0.6,1-1,1.4c-0.4,0.4-0.9,0.7-1.5,1
				c-0.6,0.2-1.1,0.3-1.7,0.3h-16.9v7.9h16.9C185,1505.6,185.6,1505.7,186.2,1506z"/>
			<path class="st0" d="M224.8,1526.3c0,0.6-0.1,1.2-0.3,1.7c-0.2,0.5-0.5,1-1,1.5c-0.4,0.4-0.9,0.8-1.5,1c-0.6,0.2-1.2,0.3-1.7,0.3
				c-0.9,0-1.7-0.2-2.5-0.7c-0.8-0.5-1.3-1.2-1.7-2l-2.8-6.8h-14.2l-2.8,6.8c-0.2,0.6-0.6,1.1-1,1.5c-0.4,0.4-0.9,0.7-1.5,1
				c-0.5,0.2-1.1,0.3-1.7,0.3c-0.6,0-1.2-0.1-1.7-0.3c-0.6-0.2-1.1-0.6-1.5-1c-0.4-0.4-0.7-0.9-1-1.5c-0.2-0.5-0.3-1.1-0.3-1.7
				c0-0.6,0.1-1.2,0.3-1.8l14.1-33.8c0.3-0.8,0.9-1.5,1.6-2c0.7-0.5,1.6-0.8,2.5-0.8s1.8,0.3,2.5,0.8c0.8,0.5,1.3,1.2,1.7,2
				l14.1,33.8C224.7,1525.1,224.8,1525.7,224.8,1526.3z M206.2,1504.2l-3.3,8h6.7L206.2,1504.2z"/>
			<path class="st0" d="M256.1,1519.1c0.5-0.4,1-0.7,1.5-0.9c0.6-0.2,1.1-0.3,1.7-0.2c0.6,0,1.2,0.2,1.7,0.4c0.5,0.2,1,0.6,1.5,1.1
				c0.4,0.5,0.7,1,0.9,1.5c0.2,0.6,0.3,1.1,0.2,1.7c0,0.6-0.2,1.2-0.4,1.7c-0.2,0.5-0.6,1-1.1,1.5c-2,1.8-4.3,3.2-6.7,4.2
				c-2.5,1-5.1,1.5-7.8,1.5c-3,0-5.8-0.6-8.4-1.7c-2.6-1.1-4.9-2.7-6.9-4.7c-2-2-3.5-4.3-4.7-6.9c-1.1-2.6-1.7-5.5-1.7-8.4
				s0.6-5.8,1.7-8.4c1.1-2.6,2.7-4.9,4.7-6.9c2-2,4.3-3.5,6.9-4.7c2.6-1.1,5.5-1.7,8.4-1.7c2.7,0,5.3,0.5,7.8,1.5
				c2.5,1,4.7,2.4,6.7,4.2c0.5,0.4,0.8,0.9,1.1,1.5c0.2,0.5,0.4,1.1,0.4,1.7c0,0.6-0.1,1.2-0.2,1.7c-0.2,0.6-0.5,1.1-0.9,1.5
				c-0.4,0.5-0.9,0.8-1.5,1.1c-0.5,0.2-1.1,0.4-1.7,0.4c-0.6,0-1.2-0.1-1.7-0.2c-0.6-0.2-1.1-0.5-1.5-0.9c-1.2-1-2.5-1.9-3.9-2.4
				c-1.5-0.6-3-0.8-4.5-0.8c-1.7,0-3.4,0.3-4.9,1c-1.5,0.7-2.8,1.6-4,2.7s-2,2.5-2.7,4c-0.7,1.5-1,3.2-1,4.9c0,1.7,0.3,3.4,1,4.9
				c0.7,1.5,1.6,2.9,2.7,4c1.1,1.1,2.5,2,4,2.7c1.5,0.7,3.2,1,4.9,1c1.6,0,3.1-0.3,4.5-0.8C253.6,1521,254.9,1520.2,256.1,1519.1z"
				/>
			<path class="st0" d="M301.1,1489.2c0.5,0.2,1,0.5,1.4,0.9c0.4,0.4,0.7,0.9,0.9,1.4s0.3,1.1,0.3,1.7c0,0.6-0.1,1.2-0.3,1.7
				c-0.2,0.5-0.5,1-0.9,1.4c-0.4,0.4-0.9,0.7-1.4,0.9c-0.5,0.2-1.1,0.3-1.7,0.3h-8.3v28.7c0,0.6-0.1,1.2-0.3,1.7
				c-0.2,0.5-0.5,1-0.9,1.4c-0.4,0.4-0.9,0.7-1.4,0.9c-0.5,0.2-1.1,0.3-1.7,0.3c-0.6,0-1.2-0.1-1.7-0.3c-0.5-0.2-1-0.5-1.4-0.9
				c-0.4-0.4-0.7-0.9-1-1.4c-0.2-0.5-0.3-1.1-0.3-1.7v-28.7H274c-0.6,0-1.2-0.1-1.7-0.3c-0.5-0.2-1-0.5-1.4-0.9
				c-0.4-0.4-0.7-0.9-0.9-1.4c-0.2-0.5-0.3-1.1-0.3-1.7c0-0.6,0.1-1.2,0.3-1.7s0.5-1,0.9-1.4c0.4-0.4,0.9-0.7,1.4-0.9
				c0.5-0.2,1.1-0.3,1.7-0.3h25.4C300,1488.8,300.5,1488.9,301.1,1489.2z"/>
			<path class="st0" d="M325.3,1488c3,0,5.8,0.6,8.5,1.7c2.7,1.1,5,2.7,6.9,4.7c2,2,3.5,4.3,4.7,6.9c1.1,2.7,1.7,5.5,1.7,8.5
				c0,2-0.3,3.9-0.8,5.8c-0.5,1.9-1.3,3.6-2.2,5.2c-0.9,1.6-2.1,3.1-3.4,4.4c-1.3,1.3-2.8,2.5-4.4,3.4c-1.6,0.9-3.3,1.7-5.2,2.2
				c-1.9,0.5-3.8,0.8-5.8,0.8c-2,0-3.9-0.3-5.8-0.8c-1.9-0.5-3.6-1.3-5.2-2.2c-1.6-0.9-3.1-2.1-4.4-3.4c-1.3-1.3-2.4-2.8-3.4-4.4
				c-0.9-1.6-1.7-3.3-2.2-5.2c-0.5-1.9-0.8-3.8-0.8-5.8c0-2,0.3-3.9,0.8-5.8c0.5-1.9,1.3-3.6,2.2-5.2c0.9-1.6,2.1-3.1,3.4-4.4
				c1.3-1.3,2.8-2.5,4.4-3.4c1.6-0.9,3.3-1.7,5.2-2.2C321.4,1488.3,323.3,1488,325.3,1488z M337.9,1509.8c0-1.7-0.3-3.4-1-4.9
				c-0.7-1.5-1.6-2.9-2.7-4c-1.1-1.2-2.5-2.1-4-2.7c-1.5-0.7-3.2-1-4.9-1c-1.7,0-3.4,0.3-4.9,1c-1.5,0.7-2.9,1.6-4,2.7
				c-1.1,1.1-2,2.5-2.7,4c-0.7,1.5-1,3.2-1,4.9c0,1.7,0.3,3.4,1,4.9c0.7,1.5,1.6,2.9,2.7,4c1.1,1.1,2.5,2.1,4,2.7
				c1.5,0.7,3.2,1,4.9,1c1.7,0,3.4-0.3,4.9-1c1.5-0.7,2.9-1.6,4-2.7c1.1-1.2,2-2.5,2.7-4C337.6,1513.1,337.9,1511.5,337.9,1509.8z"
				/>
			<path class="st0" d="M384.9,1524.2c0.4,0.5,0.6,1,0.8,1.5c0.2,0.6,0.2,1.1,0.1,1.7c-0.1,0.6-0.3,1.2-0.5,1.7
				c-0.4,0.8-1,1.3-1.7,1.7c-0.7,0.4-1.5,0.6-2.2,0.6c-0.7,0-1.4-0.2-2.2-0.6l-17.5-9.7v5.8c0,0.6-0.1,1.2-0.3,1.7
				c-0.2,0.5-0.6,1-1,1.4c-0.4,0.4-0.9,0.7-1.4,1c-0.6,0.2-1.1,0.3-1.7,0.3c-0.6,0-1.2-0.1-1.7-0.3c-0.6-0.2-1-0.6-1.4-1
				c-0.4-0.4-0.7-0.9-1-1.4s-0.3-1.1-0.3-1.7v-13.4v-0.1v-20.1c0-0.6,0.1-1.2,0.3-1.7c0.2-0.6,0.6-1,1-1.4c0.4-0.4,0.9-0.7,1.4-1
				c0.6-0.2,1.1-0.3,1.7-0.3h12.9c2.2,0,4.3,0.4,6.2,1.1c1.9,0.7,3.6,1.8,5,3.1c1.4,1.3,2.5,2.8,3.3,4.6s1.2,3.7,1.2,5.8
				c0,1.8-0.3,3.4-0.9,5c-0.6,1.6-1.4,3-2.5,4.2c-1.1,1.2-2.3,2.3-3.8,3.1c-1.5,0.9-3.1,1.5-4.9,1.9l9.7,5.4
				C384,1523.3,384.5,1523.7,384.9,1524.2z M376.8,1503.4c0-1-0.2-1.8-0.6-2.5c-0.4-0.7-0.9-1.3-1.5-1.8c-0.6-0.5-1.3-0.8-2.2-1
				c-0.8-0.2-1.6-0.3-2.5-0.3h-8.4v11.2h8.4c0.8,0,1.7-0.1,2.5-0.3c0.8-0.2,1.5-0.6,2.2-1c0.6-0.4,1.1-1,1.5-1.7
				C376.6,1505.2,376.8,1504.4,376.8,1503.4z"/>
			<path class="st0" d="M426.4,1489c0.5,0.4,0.9,0.9,1.2,1.4c0.3,0.5,0.5,1.1,0.5,1.7c0.1,0.6,0,1.2-0.1,1.8
				c-0.2,0.6-0.4,1.1-0.8,1.6l-12.6,15.9v15.6c0,0.6-0.1,1.2-0.4,1.8c-0.2,0.6-0.6,1-1,1.5c-0.4,0.4-0.9,0.7-1.4,1
				c-0.6,0.2-1.1,0.3-1.8,0.3c-0.6,0-1.2-0.1-1.8-0.3c-0.6-0.2-1-0.6-1.5-1c-0.4-0.4-0.7-0.9-1-1.5c-0.2-0.6-0.3-1.1-0.3-1.8v-15.6
				l-12.4-15.9c-0.4-0.5-0.7-1-0.8-1.6c-0.1-0.6-0.2-1.2-0.1-1.8c0.1-0.6,0.3-1.1,0.5-1.7c0.3-0.5,0.7-1,1.2-1.4
				c0.5-0.4,1-0.6,1.6-0.8c0.6-0.2,1.2-0.2,1.7-0.1c0.6,0.1,1.1,0.3,1.7,0.5c0.5,0.3,1,0.7,1.4,1.2l9.9,12.6l10-12.6
				c0.4-0.5,0.8-0.9,1.4-1.2c0.5-0.3,1.1-0.5,1.7-0.5s1.2,0,1.7,0.2C425.4,1488.4,425.9,1488.7,426.4,1489z"/>
		</g>
		<g>
			<path class="st0" d="M294.5,1542.6l2.1,5.9l2.1-5.9h1.2l-2.7,7.1H296l-2.7-7.1H294.5z"/>
			<path class="st0" d="M305.2,1542.6v7.1h-1.2v-7.1H305.2z"/>
			<path class="st0" d="M315.5,1548.1c-0.3,0.5-0.8,0.9-1.3,1.2c-0.6,0.3-1.2,0.4-2,0.4h-2.3v-7.1h2.3c0.8,0,1.4,0.1,2,0.4
				c0.6,0.3,1,0.7,1.3,1.3c0.3,0.5,0.5,1.2,0.5,1.9C316,1546.9,315.8,1547.6,315.5,1548.1z M314.1,1548.1c0.4-0.5,0.7-1.1,0.7-1.9
				c0-0.8-0.2-1.5-0.7-1.9c-0.4-0.5-1.1-0.7-1.9-0.7H311v5.3h1.2C313,1548.9,313.6,1548.6,314.1,1548.1z"/>
			<path class="st0" d="M321.4,1543.5v2.2h2.5v0.9h-2.5v2.2h2.8v0.9h-3.9v-7.1h3.9v0.9H321.4z"/>
			<path class="st0" d="M333.7,1543c0.6,0.3,1,0.7,1.3,1.3c0.3,0.6,0.5,1.2,0.5,1.9c0,0.7-0.2,1.3-0.5,1.9c-0.3,0.6-0.8,1-1.3,1.3
				s-1.2,0.5-1.8,0.5c-0.7,0-1.3-0.2-1.8-0.5s-1-0.7-1.3-1.3c-0.3-0.6-0.5-1.2-0.5-1.9c0-0.7,0.2-1.3,0.5-1.9c0.3-0.6,0.8-1,1.3-1.3
				c0.6-0.3,1.2-0.5,1.8-0.5C332.6,1542.5,333.2,1542.7,333.7,1543z M330.6,1543.9c-0.4,0.2-0.7,0.5-0.9,0.9
				c-0.2,0.4-0.3,0.8-0.3,1.4c0,0.5,0.1,1,0.3,1.4c0.2,0.4,0.5,0.7,0.9,0.9c0.4,0.2,0.8,0.3,1.3,0.3c0.5,0,0.9-0.1,1.3-0.3
				c0.4-0.2,0.7-0.5,0.9-0.9c0.2-0.4,0.3-0.8,0.3-1.4c0-0.5-0.1-1-0.3-1.4c-0.2-0.4-0.5-0.7-0.9-0.9c-0.4-0.2-0.8-0.3-1.3-0.3
				C331.4,1543.6,331,1543.7,330.6,1543.9z"/>
			<path class="st0" d="M351.2,1543.1c0.6,0.4,1,0.9,1.3,1.6h-1.4c-0.2-0.4-0.4-0.6-0.8-0.8c-0.3-0.2-0.7-0.3-1.1-0.3
				c-0.5,0-0.9,0.1-1.3,0.3c-0.4,0.2-0.7,0.5-0.9,0.9c-0.2,0.4-0.3,0.8-0.3,1.4c0,0.5,0.1,1,0.3,1.4c0.2,0.4,0.5,0.7,0.9,0.9
				c0.4,0.2,0.8,0.3,1.3,0.3c0.4,0,0.8-0.1,1.1-0.3c0.3-0.2,0.6-0.4,0.8-0.8h1.4c-0.3,0.7-0.7,1.2-1.3,1.6c-0.6,0.4-1.3,0.6-2,0.6
				c-0.7,0-1.3-0.2-1.8-0.5c-0.6-0.3-1-0.7-1.3-1.3c-0.3-0.6-0.5-1.2-0.5-1.9c0-0.7,0.2-1.3,0.5-1.9c0.3-0.6,0.8-1,1.3-1.3
				c0.6-0.3,1.2-0.5,1.8-0.5C349.9,1542.5,350.6,1542.7,351.2,1543.1z"/>
			<path class="st0" d="M362,1543c0.6,0.3,1,0.7,1.3,1.3c0.3,0.6,0.5,1.2,0.5,1.9c0,0.7-0.2,1.3-0.5,1.9c-0.3,0.6-0.8,1-1.3,1.3
				s-1.2,0.5-1.8,0.5c-0.7,0-1.3-0.2-1.8-0.5c-0.6-0.3-1-0.7-1.3-1.3c-0.3-0.6-0.5-1.2-0.5-1.9c0-0.7,0.2-1.3,0.5-1.9
				c0.3-0.6,0.8-1,1.3-1.3c0.6-0.3,1.2-0.5,1.8-0.5C360.8,1542.5,361.4,1542.7,362,1543z M358.9,1543.9c-0.4,0.2-0.7,0.5-0.9,0.9
				c-0.2,0.4-0.3,0.8-0.3,1.4c0,0.5,0.1,1,0.3,1.4c0.2,0.4,0.5,0.7,0.9,0.9c0.4,0.2,0.8,0.3,1.3,0.3c0.5,0,0.9-0.1,1.3-0.3
				c0.4-0.2,0.7-0.5,0.9-0.9c0.2-0.4,0.3-0.8,0.3-1.4c0-0.5-0.1-1-0.3-1.4c-0.2-0.4-0.5-0.7-0.9-0.9c-0.4-0.2-0.8-0.3-1.3-0.3
				C359.7,1543.6,359.3,1543.7,358.9,1543.9z"/>
			<path class="st0" d="M373.9,1549.7h-1.2l-3.5-5.3v5.3H368v-7.1h1.2l3.5,5.3v-5.3h1.2V1549.7z"/>
			<path class="st0" d="M379.2,1542.6l2.1,5.9l2.1-5.9h1.2l-2.7,7.1h-1.4l-2.7-7.1H379.2z"/>
			<path class="st0" d="M389.8,1543.5v2.2h2.5v0.9h-2.5v2.2h2.8v0.9h-3.9v-7.1h3.9v0.9H389.8z"/>
			<path class="st0" d="M400.8,1549.7l-1.8-2.9h-0.7v2.9h-1.2v-7.1h2.5c0.5,0,1,0.1,1.4,0.3s0.7,0.4,0.9,0.8
				c0.2,0.3,0.3,0.7,0.3,1.1c0,0.5-0.1,0.9-0.4,1.3c-0.3,0.4-0.7,0.6-1.3,0.7l1.9,3H400.8z M398.3,1545.9h1.3c0.4,0,0.8-0.1,1-0.3
				c0.2-0.2,0.3-0.5,0.3-0.9c0-0.4-0.1-0.7-0.3-0.9c-0.2-0.2-0.6-0.3-1-0.3h-1.3V1545.9z"/>
			<path class="st0" d="M411.3,1542.6v0.9h-1.9v6.2h-1.2v-6.2h-1.9v-0.9H411.3z"/>
			<path class="st0" d="M416.7,1543.5v2.2h2.5v0.9h-2.5v2.2h2.8v0.9h-3.9v-7.1h3.9v0.9H416.7z"/>
			<path class="st0" d="M427.7,1549.7l-1.8-2.9h-0.7v2.9H424v-7.1h2.5c0.5,0,1,0.1,1.4,0.3c0.4,0.2,0.7,0.4,0.9,0.8
				c0.2,0.3,0.3,0.7,0.3,1.1c0,0.5-0.1,0.9-0.4,1.3c-0.3,0.4-0.7,0.6-1.3,0.7l1.9,3H427.7z M425.2,1545.9h1.3c0.4,0,0.8-0.1,1-0.3
				c0.2-0.2,0.3-0.5,0.3-0.9c0-0.4-0.1-0.7-0.3-0.9c-0.2-0.2-0.6-0.3-1-0.3h-1.3V1545.9z"/>
		</g>
	</g>
	<g>
		<circle class="st0" cx="297" cy="1304.5" r="19.8"/>
		<g>
			<circle class="st0" cx="233.6" cy="1188.6" r="4.6"/>
			<polygon class="st0" points="286.1,1299.6 232.1,1188 233.8,1186.3 295.4,1297.9 288.4,1303.1 			"/>
		</g>
		<g>
			<circle class="st0" cx="352.2" cy="1214.4" r="3.6"/>
			<polygon class="st0" points="310.4,1302.6 353.4,1213.9 352,1212.5 303.1,1301.2 308.6,1305.4 			"/>
		</g>
	</g>
	<path class="st1" d="M293.3,1299.1c-43.6,0-79,35.3-79,79c0,43.6,35.4,78.9,79,78.9c43.6,0,78.9-35.3,78.9-78.9
		C372.2,1334.4,336.9,1299.1,293.3,1299.1L293.3,1299.1z M347,1404.4c-1.4,5.9-6.2,10.3-12.1,10.9c-13.8,1.5-27.8,1.6-41.7,1.5
		c-13.9,0-27.9,0-41.7-1.5c-5.8-0.6-10.7-5-12-10.9c-1.9-8.4-1.9-17.7-1.9-26.4c0-8.7,0-17.9,2-26.4c1.4-5.9,6.2-10.3,12-10.9
		c13.8-1.5,27.8-1.6,41.7-1.5c13.9,0,27.9,0,41.7,1.5c5.8,0.6,10.7,5,12.1,10.9c1.9,8.4,1.9,17.7,1.9,26.4
		C349,1386.7,349,1396,347,1404.4L347,1404.4z M347,1404.4"/>
	<g>
		<path class="st0" d="M407.8,1374c-16.5,0-31.3-7.4-41.3-19h-10.7v47.1h10.7c10-11.7,24.8-19.1,41.4-19.1s27.5,12,42.5,17l8,1
			l0.4-46l-9.4,2C436.3,1363,424.3,1374,407.8,1374z"/>
		<circle class="st0" cx="459" cy="1378.5" r="23.5"/>
	</g>
	<g>
		<path class="st0" d="M178.4,1374c16.5,0,31.3-7.4,41.3-19h10.7v47.1h-10.7c-10-11.7-24.8-19.1-41.4-19.1s-27.5,12-42.5,17l-8,1
			l-0.4-46l9.4,2C149.9,1363,161.8,1374,178.4,1374z"/>
		<circle class="st0" cx="127.2" cy="1378.5" r="23.5"/>
	</g>
	<path class="st2" d="M473.1,1370.3c-4.6-7.9-14.6-10.6-22.5-6c-7.9,4.6-10.6,14.6-6,22.5c4.6,7.9,14.6,10.6,22.5,6
		C474.9,1388.2,477.6,1378.1,473.1,1370.3L473.1,1370.3z M465.4,1389.9c-6.3,3.6-14.4,1.5-18-4.8c-3.6-6.3-1.5-14.4,4.8-18
		c6.3-3.6,14.4-1.5,18,4.8C473.8,1378.2,471.7,1386.3,465.4,1389.9L465.4,1389.9z M464.7,1377.8l-8.6-5c-0.8-0.5-1.4-0.1-1.4,0.8
		l0,10c0,0.9,0.6,1.3,1.4,0.8l8.6-5C465.5,1379,465.5,1378.3,464.7,1377.8L464.7,1377.8z M464.7,1377.8"/>
	<path class="st3" d="M141.7,1370.3c-4.6-7.9-14.6-10.6-22.5-6c-7.9,4.6-10.6,14.6-6,22.5c4.6,7.9,14.6,10.6,22.5,6
		C143.5,1388.2,146.2,1378.1,141.7,1370.3L141.7,1370.3z M134,1389.9c-6.3,3.6-14.4,1.5-18-4.8c-3.6-6.3-1.5-14.4,4.8-18
		c6.3-3.6,14.4-1.5,18,4.8C142.5,1378.2,140.3,1386.3,134,1389.9L134,1389.9z M133.3,1377.8 M123.4,1373.2v7.8
		c-0.4-0.3-0.9-0.4-1.4-0.4c-1.5,0-2.7,1.2-2.7,2.7c0,1.5,1.2,2.7,2.7,2.7c1.5,0,2.7-1.2,2.7-2.7v-7.3l6.9-2v4.6
		c-0.4-0.3-0.9-0.4-1.4-0.4c-1.5,0-2.7,1.2-2.7,2.7c0,1.5,1.2,2.7,2.7,2.7c1.4,0,2.6-1.1,2.7-2.4h0v-10.7L123.4,1373.2z
		 M123.4,1373.2"/>
</g>
<rect x="-84.7" y="-70" class="st4" width="1366" height="768"/>
<g>
	<g>
		<path d="M397.8,368.3c1.3,1.1,2.4,2.4,3.2,3.8c0.8,1.4,1.3,2.9,1.5,4.5s0.1,3.2-0.4,4.8c-0.4,1.6-1.2,3.1-2.2,4.5l-34.6,43.5v42.7
			c0,1.7-0.3,3.4-1,4.9c-0.7,1.5-1.6,2.8-2.7,4c-1.1,1.2-2.4,2.1-3.9,2.7c-1.5,0.6-3.1,1-4.9,1c-1.8,0-3.4-0.3-4.9-1
			c-1.5-0.6-2.8-1.5-4-2.7c-1.2-1.2-2-2.5-2.7-4c-0.6-1.5-1-3.1-1-4.9v-42.7L306.1,386c-1.1-1.4-1.9-2.8-2.3-4.5
			c-0.4-1.6-0.5-3.2-0.3-4.8s0.7-3.1,1.5-4.5c0.8-1.4,1.9-2.7,3.2-3.8c1.3-1,2.8-1.8,4.4-2.2c1.6-0.4,3.2-0.6,4.8-0.4
			s3.1,0.7,4.5,1.5c1.4,0.8,2.7,1.9,3.8,3.2l27.1,34.5l27.3-34.6c1-1.3,2.3-2.4,3.8-3.2c1.5-0.8,3-1.3,4.6-1.4
			c1.6-0.2,3.2,0,4.8,0.4C394.9,366.6,396.4,367.3,397.8,368.3z"/>
		<path d="M508.8,368.7c1.5,0.6,2.7,1.5,3.8,2.6c1.1,1.1,1.9,2.3,2.6,3.8c0.6,1.5,1,3,1,4.7s-0.3,3.2-1,4.7
			c-0.6,1.5-1.5,2.7-2.6,3.8c-1.1,1.1-2.3,1.9-3.8,2.6c-1.5,0.6-3,1-4.7,1h-22.7v78.6c0,1.7-0.3,3.2-1,4.7c-0.6,1.5-1.5,2.7-2.6,3.8
			c-1.1,1.1-2.4,1.9-3.8,2.6s-3,1-4.7,1s-3.2-0.3-4.7-1s-2.8-1.5-3.9-2.6c-1.1-1.1-2-2.3-2.6-3.8c-0.6-1.5-1-3-1-4.7v-78.6h-22.7
			c-1.7,0-3.2-0.3-4.7-1c-1.5-0.6-2.7-1.5-3.8-2.6c-1.1-1.1-1.9-2.3-2.6-3.8c-0.6-1.5-1-3-1-4.7s0.3-3.2,1-4.7
			c0.6-1.5,1.5-2.7,2.6-3.8c1.1-1.1,2.3-1.9,3.8-2.6s3-1,4.7-1H504C505.7,367.7,507.3,368.1,508.8,368.7z"/>
	</g>
	<g>
		<path d="M282.4,618.8l4,11.1l4-11.1h2.3l-5,13.4h-2.5l-5.1-13.4H282.4z"/>
		<path d="M302.5,618.8v13.4h-2.2v-13.4H302.5z"/>
		<path d="M321.8,629.1c-0.6,1-1.4,1.8-2.5,2.3c-1.1,0.5-2.3,0.8-3.8,0.8h-4.4v-13.4h4.4c1.4,0,2.7,0.3,3.8,0.8
			c1.1,0.5,1.9,1.3,2.5,2.4s0.9,2.2,0.9,3.6S322.4,628.1,321.8,629.1z M319.2,629.2c0.8-0.9,1.3-2.1,1.3-3.6c0-1.6-0.4-2.8-1.3-3.7
			c-0.8-0.9-2-1.3-3.6-1.3h-2.2v10h2.2C317.1,630.5,318.3,630,319.2,629.2z"/>
		<path d="M332.9,620.5v4.1h4.6v1.7h-4.6v4.2h5.2v1.7h-7.4v-13.4h7.4v1.7H332.9z"/>
		<path d="M356.2,619.5c1,0.6,1.9,1.4,2.5,2.4c0.6,1,0.9,2.2,0.9,3.5c0,1.3-0.3,2.5-0.9,3.5c-0.6,1-1.4,1.9-2.5,2.5
			c-1,0.6-2.2,0.9-3.5,0.9c-1.2,0-2.4-0.3-3.4-0.9c-1-0.6-1.9-1.4-2.5-2.5s-0.9-2.2-0.9-3.5c0-1.3,0.3-2.5,0.9-3.5s1.4-1.9,2.5-2.4
			c1-0.6,2.2-0.9,3.4-0.9C354,618.6,355.1,618.9,356.2,619.5z M350.3,621.2c-0.7,0.4-1.2,1-1.6,1.7c-0.4,0.7-0.6,1.6-0.6,2.5
			c0,1,0.2,1.8,0.6,2.6c0.4,0.7,0.9,1.3,1.6,1.7c0.7,0.4,1.5,0.6,2.4,0.6c0.9,0,1.7-0.2,2.4-0.6c0.7-0.4,1.2-1,1.6-1.7
			c0.4-0.7,0.6-1.6,0.6-2.6c0-1-0.2-1.8-0.6-2.5c-0.4-0.7-0.9-1.3-1.6-1.7c-0.7-0.4-1.5-0.6-2.4-0.6
			C351.8,620.6,351,620.8,350.3,621.2z"/>
		<path d="M389,619.6c1.1,0.7,1.9,1.7,2.4,3h-2.6c-0.3-0.7-0.8-1.2-1.4-1.5c-0.6-0.3-1.3-0.5-2.1-0.5c-0.9,0-1.7,0.2-2.4,0.6
			c-0.7,0.4-1.2,1-1.6,1.7c-0.4,0.7-0.6,1.6-0.6,2.5c0,1,0.2,1.8,0.6,2.6c0.4,0.7,0.9,1.3,1.6,1.7c0.7,0.4,1.5,0.6,2.4,0.6
			c0.8,0,1.5-0.2,2.1-0.5c0.6-0.3,1.1-0.8,1.4-1.5h2.6c-0.5,1.3-1.3,2.3-2.4,3c-1.1,0.7-2.4,1-3.8,1c-1.3,0-2.4-0.3-3.5-0.9
			c-1-0.6-1.9-1.4-2.5-2.4c-0.6-1-0.9-2.2-0.9-3.5c0-1.3,0.3-2.5,0.9-3.5c0.6-1,1.4-1.9,2.5-2.4c1-0.6,2.2-0.9,3.4-0.9
			C386.6,618.6,387.9,618.9,389,619.6z"/>
		<path d="M409.4,619.5c1,0.6,1.9,1.4,2.5,2.4c0.6,1,0.9,2.2,0.9,3.5c0,1.3-0.3,2.5-0.9,3.5c-0.6,1-1.4,1.9-2.5,2.5
			c-1,0.6-2.2,0.9-3.5,0.9c-1.2,0-2.4-0.3-3.4-0.9c-1-0.6-1.9-1.4-2.5-2.5s-0.9-2.2-0.9-3.5c0-1.3,0.3-2.5,0.9-3.5s1.4-1.9,2.5-2.4
			c1-0.6,2.2-0.9,3.4-0.9C407.2,618.6,408.3,618.9,409.4,619.5z M403.6,621.2c-0.7,0.4-1.2,1-1.6,1.7c-0.4,0.7-0.6,1.6-0.6,2.5
			c0,1,0.2,1.8,0.6,2.6c0.4,0.7,0.9,1.3,1.6,1.7c0.7,0.4,1.5,0.6,2.4,0.6c0.9,0,1.7-0.2,2.4-0.6c0.7-0.4,1.2-1,1.6-1.7
			c0.4-0.7,0.6-1.6,0.6-2.6c0-1-0.2-1.8-0.6-2.5c-0.4-0.7-0.9-1.3-1.6-1.7c-0.7-0.4-1.5-0.6-2.4-0.6
			C405,620.6,404.2,620.8,403.6,621.2z"/>
		<path d="M431.8,632.2h-2.2l-6.6-10v10h-2.2v-13.4h2.2l6.6,10v-10h2.2V632.2z"/>
		<path d="M441.7,618.8l4,11.1l4-11.1h2.3l-5,13.4h-2.5l-5.1-13.4H441.7z"/>
		<path d="M461.9,620.5v4.1h4.6v1.7h-4.6v4.2h5.2v1.7h-7.4v-13.4h7.4v1.7H461.9z"/>
		<path d="M482.5,632.2l-3.4-5.4h-1.4v5.4h-2.2v-13.4h4.6c1,0,1.9,0.2,2.6,0.5c0.7,0.4,1.2,0.8,1.6,1.4c0.4,0.6,0.5,1.3,0.5,2
			c0,0.9-0.3,1.7-0.8,2.4c-0.5,0.7-1.4,1.2-2.5,1.4l3.6,5.6H482.5z M477.8,625h2.4c0.8,0,1.5-0.2,1.9-0.6c0.4-0.4,0.6-1,0.6-1.7
			c0-0.7-0.2-1.3-0.6-1.7c-0.4-0.4-1-0.6-1.9-0.6h-2.4V625z"/>
		<path d="M502.2,618.8v1.7h-3.6v11.7h-2.2v-11.7h-3.6v-1.7H502.2z"/>
		<path d="M512.4,620.5v4.1h4.6v1.7h-4.6v4.2h5.2v1.7h-7.4v-13.4h7.4v1.7H512.4z"/>
		<path d="M533.1,632.2l-3.4-5.4h-1.4v5.4h-2.2v-13.4h4.6c1,0,1.9,0.2,2.6,0.5c0.7,0.4,1.2,0.8,1.6,1.4c0.4,0.6,0.5,1.3,0.5,2
			c0,0.9-0.3,1.7-0.8,2.4c-0.5,0.7-1.4,1.2-2.5,1.4l3.6,5.6H533.1z M528.4,625h2.4c0.8,0,1.5-0.2,1.9-0.6c0.4-0.4,0.6-1,0.6-1.7
			c0-0.7-0.2-1.3-0.6-1.7c-0.4-0.4-1-0.6-1.9-0.6h-2.4V625z"/>
	</g>
	<g>
		<circle cx="416" cy="260" r="42.8"/>
		<g>
			<circle cx="279.3" cy="9.9" r="9.9"/>
			<polygon points="392.7,249.5 276,8.7 279.7,4.9 412.7,245.8 397.7,257.1 			"/>
		</g>
		<g>
			<circle cx="535.3" cy="65.5" r="7.9"/>
			<polygon points="445.2,256 537.9,64.5 534.9,61.6 429.2,253 441.2,262 			"/>
		</g>
	</g>
	<g>
		<path d="M751.1,395.1c-13.6,7.9-18.3,25.3-10.4,38.9c7.9,13.6,25.3,18.3,38.9,10.4c13.6-7.9,18.3-25.3,10.4-38.9
			C782.1,391.9,764.7,387.3,751.1,395.1z M778.1,421.9l-18.5,10.7c-1.7,1-3.1,0.2-3.1-1.8l-0.1-21.6c0-2,1.4-2.8,3.1-1.8l18.6,10.9
			C779.8,419.4,779.8,421,778.1,421.9z"/>
		<path d="M765.7,369.1c-0.2,0-0.4,0-0.6,0l0,0l-0.1,0c-6.9,0.1-13.4,1.6-19.4,4.1l-0.8,0.2c-28.1,13-53.9,36.7-89.6,36.7
			c-35.7,0-67.6-15.9-89.2-41h-23.2v101.6h23c21.6-25.2,53.6-41.2,89.4-41.2c33.4,0,56.1,22.5,85.3,34.3c7.4,4.2,16,6.7,25.2,6.7
			c28,0,50.7-22.7,50.7-50.7C816.5,391.8,793.7,369.1,765.7,369.1z M783.1,450.7c-17,9.8-38.8,4-48.6-13c-9.8-17-4-38.8,13-48.6
			c17-9.8,38.8-4,48.6,13C806,419,800.1,440.8,783.1,450.7z"/>
	</g>
	<g>
		<path d="M250.4,369.1c-21.6,25.1-53.5,41-89.2,41c-35.7,0-61.5-23.7-89.6-36.7l-0.8-0.2c-6-2.6-12.5-4-19.4-4.1l-0.1,0l0,0
			c-0.2,0-0.4,0-0.6,0c-28,0-50.7,22.7-50.7,50.7c0,28,22.7,50.7,50.7,50.7c9.2,0,17.7-2.4,25.2-6.7c29.2-11.8,52-34.3,85.3-34.3
			c35.8,0,67.8,16,89.4,41.2h23V369.1H250.4z M69,450.7c-17,9.8-38.8,4-48.6-13c-9.8-17-4-38.8,13-48.6c17-9.8,38.8-4,48.6,13
			C91.8,419,86,440.8,69,450.7z"/>
		<path d="M36.9,395.1c-13.6,7.9-18.3,25.3-10.4,38.9c7.9,13.6,25.3,18.3,38.9,10.4c13.6-7.9,18.3-25.3,10.4-38.9
			C68,391.9,50.5,387.3,36.9,395.1z M62.9,425.6L62.9,425.6c-0.3,3-2.8,5.3-5.8,5.3c-3.2,0-5.8-2.6-5.8-5.8c0-3.2,2.6-5.8,5.8-5.8
			c1.1,0,2.2,0.3,3,0.9v-10l-14.8,4.3v15.7c0,3.2-2.6,5.8-5.8,5.8c-3.2,0-5.8-2.6-5.8-5.8c0-3.2,2.6-5.8,5.8-5.8
			c1.1,0,2.1,0.3,3,0.9v-16.8l20.4-5.9V425.6z"/>
	</g>
	<g>
		<path class="st5" d="M454,530.8c-0.3-0.3-0.7-0.4-1.2-0.6c-0.4-0.1-0.9-0.2-1.3-0.2h-4.6v6.1h4.6c0.5,0,0.9-0.1,1.3-0.2
			c0.4-0.1,0.8-0.3,1.2-0.5c0.3-0.2,0.6-0.6,0.8-0.9c0.2-0.4,0.3-0.8,0.3-1.4c0-0.5-0.1-1-0.3-1.4
			C454.6,531.4,454.4,531.1,454,530.8z"/>
		<path class="st5" d="M408.1,248.4c-94.1,0-170.4,76.3-170.4,170.4c0,94.1,76.3,170.4,170.4,170.4c94.1,0,170.4-76.3,170.4-170.4
			C578.5,324.7,502.2,248.4,408.1,248.4z M350.6,539.3h-9.2v6.7c0,0.3-0.1,0.7-0.2,1c-0.1,0.3-0.3,0.6-0.5,0.8
			c-0.2,0.2-0.5,0.4-0.8,0.5c-0.3,0.1-0.6,0.2-0.9,0.2c-0.7,0-1.3-0.2-1.8-0.7c-0.5-0.5-0.7-1.1-0.7-1.8v-18.4
			c0-0.3,0.1-0.6,0.2-0.9c0.1-0.3,0.3-0.6,0.5-0.8c0.2-0.2,0.5-0.4,0.8-0.5c0.3-0.1,0.6-0.2,1-0.2h11.6c0.3,0,0.7,0.1,1,0.2
			c0.3,0.1,0.6,0.3,0.8,0.5c0.2,0.2,0.4,0.5,0.5,0.8c0.1,0.3,0.2,0.6,0.2,0.9c0,0.3-0.1,0.6-0.2,0.9c-0.1,0.3-0.3,0.6-0.5,0.8
			c-0.2,0.2-0.5,0.4-0.8,0.5c-0.3,0.1-0.6,0.2-0.9,0.2h-9.2v4.3h9.2c0.3,0,0.6,0.1,0.9,0.2c0.3,0.1,0.6,0.3,0.8,0.5
			c0.2,0.2,0.4,0.5,0.5,0.8c0.1,0.3,0.2,0.6,0.2,0.9c0,0.3-0.1,0.6-0.2,0.9c-0.1,0.3-0.3,0.6-0.5,0.8c-0.2,0.2-0.5,0.4-0.8,0.5
			C351.2,539.2,350.9,539.3,350.6,539.3z M372.3,546.5c-0.1,0.3-0.3,0.6-0.5,0.8c-0.2,0.2-0.5,0.4-0.8,0.5c-0.3,0.1-0.6,0.2-0.9,0.2
			c-0.5,0-0.9-0.1-1.3-0.4c-0.4-0.3-0.7-0.6-0.9-1.1l-1.5-3.7h-7.7l-1.5,3.7c-0.1,0.3-0.3,0.6-0.5,0.8c-0.2,0.2-0.5,0.4-0.8,0.5
			c-0.3,0.1-0.6,0.2-0.9,0.2c-0.3,0-0.6-0.1-0.9-0.2c-0.3-0.1-0.6-0.3-0.8-0.5c-0.2-0.2-0.4-0.5-0.5-0.8c-0.1-0.3-0.2-0.6-0.2-0.9
			c0-0.3,0.1-0.6,0.2-1l7.7-18.4c0.2-0.5,0.5-0.8,0.9-1.1c0.4-0.3,0.9-0.4,1.4-0.4c0.5,0,1,0.1,1.4,0.4c0.4,0.3,0.7,0.6,0.9,1.1
			l7.6,18.4c0.1,0.3,0.2,0.6,0.2,1C372.5,545.9,372.4,546.3,372.3,546.5z M378.7,539.3c0.4,0.8,0.9,1.6,1.5,2.2
			c0.6,0.6,1.3,1.1,2.2,1.5c0.8,0.4,1.7,0.5,2.7,0.5c0.9,0,1.7-0.2,2.5-0.5c0.8-0.3,1.5-0.7,2.1-1.3c0.3-0.2,0.5-0.4,0.8-0.5
			c0.3-0.1,0.6-0.1,0.9-0.1c0.3,0,0.6,0.1,0.9,0.2c0.3,0.1,0.6,0.3,0.8,0.6s0.4,0.5,0.5,0.8c0.1,0.3,0.1,0.6,0.1,0.9
			c0,0.3-0.1,0.6-0.2,0.9c-0.1,0.3-0.3,0.6-0.6,0.8c-1.1,1-2.3,1.8-3.7,2.3c-1.4,0.5-2.8,0.8-4.3,0.8c-1.6,0-3.2-0.3-4.6-0.9
			c-1.4-0.6-2.7-1.5-3.8-2.5c-1.1-1.1-1.9-2.3-2.5-3.8c-0.6-1.4-0.9-3-0.9-4.6s0.3-3.2,0.9-4.6c0.6-1.4,1.5-2.7,2.5-3.8
			c1.1-1.1,2.3-1.9,3.8-2.5c1.4-0.6,3-0.9,4.6-0.9c1.5,0,2.9,0.3,4.3,0.8c1.4,0.5,2.6,1.3,3.7,2.3c0.3,0.2,0.4,0.5,0.6,0.8
			c0.1,0.3,0.2,0.6,0.2,0.9c0,0.3,0,0.6-0.1,0.9c-0.1,0.3-0.3,0.6-0.5,0.8c-0.2,0.3-0.5,0.4-0.8,0.6c-0.3,0.1-0.6,0.2-0.9,0.2
			c-0.3,0-0.6,0-0.9-0.1c-0.3-0.1-0.6-0.3-0.8-0.5c-0.6-0.6-1.3-1-2.1-1.3c-0.8-0.3-1.6-0.5-2.5-0.5c-0.9,0-1.8,0.2-2.7,0.5
			c-0.8,0.4-1.5,0.9-2.2,1.5c-0.6,0.6-1.1,1.3-1.5,2.2c-0.4,0.8-0.5,1.7-0.5,2.7C378.1,537.6,378.3,538.5,378.7,539.3z M414.7,529.3
			c-0.2,0.2-0.5,0.4-0.8,0.5c-0.3,0.1-0.6,0.2-0.9,0.2h-4.5v15.6c0,0.3-0.1,0.6-0.2,0.9c-0.1,0.3-0.3,0.5-0.5,0.8
			c-0.2,0.2-0.5,0.4-0.8,0.5c-0.3,0.1-0.6,0.2-0.9,0.2c-0.3,0-0.6-0.1-0.9-0.2c-0.3-0.1-0.5-0.3-0.8-0.5c-0.2-0.2-0.4-0.5-0.5-0.8
			c-0.1-0.3-0.2-0.6-0.2-0.9V530h-4.5c-0.3,0-0.6-0.1-0.9-0.2c-0.3-0.1-0.5-0.3-0.8-0.5c-0.2-0.2-0.4-0.5-0.5-0.8s-0.2-0.6-0.2-0.9
			c0-0.3,0.1-0.6,0.2-0.9c0.1-0.3,0.3-0.5,0.5-0.8c0.2-0.2,0.5-0.4,0.8-0.5c0.3-0.1,0.6-0.2,0.9-0.2h13.8c0.3,0,0.6,0.1,0.9,0.2
			c0.3,0.1,0.5,0.3,0.8,0.5c0.2,0.2,0.4,0.5,0.5,0.8c0.1,0.3,0.2,0.6,0.2,0.9c0,0.3-0.1,0.6-0.2,0.9
			C415.1,528.9,415,529.1,414.7,529.3z M438.5,539.8c-0.3,1-0.7,2-1.2,2.8c-0.5,0.9-1.1,1.7-1.8,2.4c-0.7,0.7-1.5,1.3-2.4,1.8
			c-0.9,0.5-1.8,0.9-2.8,1.2c-1,0.3-2.1,0.4-3.1,0.4c-1.1,0-2.1-0.1-3.1-0.4c-1-0.3-1.9-0.7-2.8-1.2c-0.9-0.5-1.7-1.1-2.4-1.8
			c-0.7-0.7-1.3-1.5-1.8-2.4c-0.5-0.9-0.9-1.8-1.2-2.8c-0.3-1-0.4-2.1-0.4-3.1c0-1.1,0.1-2.1,0.4-3.1c0.3-1,0.7-2,1.2-2.8
			c0.5-0.9,1.1-1.7,1.8-2.4c0.7-0.7,1.5-1.3,2.4-1.8c0.9-0.5,1.8-0.9,2.8-1.2c1-0.3,2.1-0.4,3.1-0.4c1.6,0,3.2,0.3,4.6,0.9
			c1.4,0.6,2.7,1.5,3.8,2.5c1.1,1.1,1.9,2.3,2.5,3.8c0.6,1.4,0.9,3,0.9,4.6C439,537.7,438.8,538.8,438.5,539.8z M458.8,543.8
			c0.3,0.2,0.5,0.4,0.7,0.6c0.2,0.3,0.3,0.5,0.4,0.8c0.1,0.3,0.1,0.6,0.1,0.9c0,0.3-0.1,0.6-0.3,0.9c-0.2,0.4-0.5,0.7-0.9,0.9
			c-0.4,0.2-0.8,0.3-1.2,0.3c-0.4,0-0.8-0.1-1.2-0.3l-9.5-5.3v3.2c0,0.3-0.1,0.6-0.2,0.9c-0.1,0.3-0.3,0.6-0.5,0.8
			c-0.2,0.2-0.5,0.4-0.8,0.5c-0.3,0.1-0.6,0.2-0.9,0.2c-0.3,0-0.6-0.1-0.9-0.2c-0.3-0.1-0.6-0.3-0.8-0.5c-0.2-0.2-0.4-0.5-0.5-0.8
			c-0.1-0.3-0.2-0.6-0.2-0.9v-7.3v-0.1v-10.9c0-0.3,0.1-0.6,0.2-0.9c0.1-0.3,0.3-0.6,0.5-0.8c0.2-0.2,0.5-0.4,0.8-0.5
			c0.3-0.1,0.6-0.2,0.9-0.2h7c1.2,0,2.3,0.2,3.4,0.6c1,0.4,1.9,1,2.7,1.7c0.8,0.7,1.4,1.5,1.8,2.5c0.4,1,0.7,2,0.7,3.1
			c0,1-0.2,1.9-0.5,2.7c-0.3,0.9-0.8,1.6-1.3,2.3c-0.6,0.7-1.3,1.2-2.1,1.7c-0.8,0.5-1.7,0.8-2.6,1L458.8,543.8z M483,528
			c-0.1,0.3-0.2,0.6-0.4,0.9l-6.9,8.6v8.5c0,0.3-0.1,0.7-0.2,1c-0.1,0.3-0.3,0.6-0.5,0.8c-0.2,0.2-0.5,0.4-0.8,0.5
			c-0.3,0.1-0.6,0.2-1,0.2c-0.3,0-0.7-0.1-1-0.2c-0.3-0.1-0.6-0.3-0.8-0.5c-0.2-0.2-0.4-0.5-0.5-0.8c-0.1-0.3-0.2-0.6-0.2-1v-8.5
			l-6.8-8.6c-0.2-0.3-0.4-0.6-0.4-0.9c-0.1-0.3-0.1-0.6-0.1-1c0-0.3,0.1-0.6,0.3-0.9c0.2-0.3,0.4-0.5,0.6-0.8
			c0.3-0.2,0.6-0.4,0.9-0.4c0.3-0.1,0.6-0.1,0.9-0.1c0.3,0,0.6,0.1,0.9,0.3c0.3,0.2,0.5,0.4,0.8,0.6l5.4,6.8l5.4-6.9
			c0.2-0.3,0.5-0.5,0.7-0.6c0.3-0.2,0.6-0.3,0.9-0.3c0.3,0,0.6,0,0.9,0.1c0.3,0.1,0.6,0.2,0.9,0.4c0.3,0.2,0.5,0.5,0.6,0.8
			c0.2,0.3,0.3,0.6,0.3,0.9C483.1,527.3,483.1,527.6,483,528z M524.2,475.7c-3,12.8-13.4,22.2-26,23.6c-29.8,3.3-60,3.4-90.1,3.3
			c-30.1,0-60.3,0-90.1-3.3c-12.6-1.4-23.1-10.8-26-23.6c-4.2-18.2-4.2-38.1-4.2-56.9c0-18.8,0.1-38.7,4.3-56.9
			c2.9-12.8,13.4-22.2,26-23.6c29.8-3.3,60-3.4,90.1-3.3c30.1,0,60.3,0,90.1,3.3c12.6,1.4,23.1,10.8,26,23.6
			c4.2,18.2,4.2,38.1,4.2,56.9C528.4,437.6,528.4,457.5,524.2,475.7z"/>
		<path class="st5" d="M432,531.8c-0.6-0.6-1.4-1.1-2.2-1.5c-0.8-0.4-1.7-0.5-2.7-0.5s-1.8,0.2-2.7,0.5c-0.8,0.4-1.6,0.8-2.2,1.5
			c-0.6,0.6-1.1,1.4-1.5,2.2c-0.4,0.8-0.5,1.7-0.5,2.7c0,0.9,0.2,1.8,0.5,2.7c0.4,0.8,0.8,1.6,1.5,2.2c0.6,0.6,1.4,1.1,2.2,1.5
			c0.8,0.4,1.7,0.5,2.7,0.5s1.8-0.2,2.7-0.5c0.8-0.4,1.6-0.8,2.2-1.5c0.6-0.6,1.1-1.4,1.5-2.2c0.4-0.8,0.5-1.7,0.5-2.7
			c0-0.9-0.2-1.8-0.5-2.7C433.1,533.1,432.6,532.4,432,531.8z"/>
		<polygon class="st5" points="360.6,537.9 364.2,537.9 362.4,533.6 		"/>
	</g>
</g>
<g>
	<g>
		<path d="M1792,333c1.2,1,2.2,2.2,2.9,3.5c0.7,1.3,1.2,2.7,1.4,4.1c0.2,1.5,0.1,2.9-0.3,4.4c-0.4,1.5-1.1,2.9-2,4.1l-31.6,39.8V428
			c0,1.6-0.3,3.1-0.9,4.5c-0.6,1.4-1.4,2.6-2.5,3.7c-1,1.1-2.2,1.9-3.6,2.5c-1.4,0.6-2.9,0.9-4.5,0.9c-1.6,0-3.1-0.3-4.5-0.9
			c-1.4-0.6-2.6-1.4-3.7-2.5c-1.1-1.1-1.9-2.3-2.5-3.7c-0.6-1.4-0.9-2.9-0.9-4.5v-39.1l-31.2-39.8c-1-1.2-1.7-2.6-2.1-4.1
			c-0.4-1.5-0.5-3-0.3-4.4s0.6-2.8,1.4-4.1c0.7-1.3,1.7-2.5,2.9-3.5c1.2-0.9,2.6-1.6,4-2c1.5-0.4,2.9-0.5,4.4-0.3
			c1.5,0.2,2.8,0.6,4.2,1.4c1.3,0.7,2.5,1.7,3.5,2.9l24.8,31.5l25-31.6c0.9-1.2,2.1-2.2,3.4-2.9c1.3-0.7,2.7-1.2,4.2-1.3
			c1.5-0.1,2.9,0,4.4,0.4C1789.4,331.3,1790.8,332,1792,333z"/>
		<path d="M1893.6,333.3c1.3,0.6,2.5,1.4,3.5,2.3c1,1,1.8,2.1,2.3,3.5c0.6,1.4,0.9,2.8,0.9,4.3c0,1.5-0.3,3-0.9,4.3
			c-0.6,1.3-1.4,2.5-2.3,3.5c-1,1-2.1,1.8-3.5,2.3c-1.4,0.6-2.8,0.9-4.3,0.9h-20.7v71.9c0,1.5-0.3,3-0.9,4.3
			c-0.6,1.4-1.4,2.5-2.3,3.5s-2.2,1.8-3.5,2.3c-1.3,0.6-2.8,0.9-4.3,0.9c-1.5,0-3-0.3-4.3-0.9c-1.3-0.6-2.5-1.4-3.5-2.3
			c-1-1-1.8-2.1-2.4-3.5c-0.6-1.3-0.9-2.8-0.9-4.3v-71.9h-20.7c-1.5,0-3-0.3-4.3-0.9c-1.3-0.6-2.5-1.4-3.5-2.3c-1-1-1.8-2.1-2.4-3.5
			c-0.6-1.4-0.9-2.8-0.9-4.3c0-1.5,0.3-3,0.9-4.3c0.6-1.3,1.4-2.5,2.4-3.5c1-1,2.1-1.8,3.5-2.3c1.3-0.6,2.8-0.9,4.3-0.9h63.6
			C1890.8,332.4,1892.2,332.7,1893.6,333.3z"/>
	</g>
	<g>
		<path d="M1686.5,562l3.6,10.2l3.7-10.2h2.1l-4.6,12.3h-2.3l-4.6-12.3H1686.5z"/>
		<path d="M1704.9,562v12.3h-2V562H1704.9z"/>
		<path d="M1722.6,571.5c-0.5,0.9-1.3,1.6-2.3,2.1c-1,0.5-2.1,0.7-3.4,0.7h-4V562h4c1.3,0,2.5,0.3,3.4,0.8c1,0.5,1.7,1.2,2.3,2.2
			c0.5,0.9,0.8,2,0.8,3.3C1723.4,569.5,1723.1,570.5,1722.6,571.5z M1720.1,571.5c0.8-0.8,1.2-1.9,1.2-3.3c0-1.4-0.4-2.5-1.2-3.3
			c-0.8-0.8-1.9-1.2-3.3-1.2h-2v9.1h2C1718.3,572.8,1719.4,572.4,1720.1,571.5z"/>
		<path d="M1732.7,563.6v3.7h4.2v1.6h-4.2v3.9h4.8v1.6h-6.8V562h6.8v1.6H1732.7z"/>
		<path d="M1754,562.7c1,0.5,1.7,1.3,2.3,2.2c0.6,1,0.8,2,0.8,3.2c0,1.2-0.3,2.3-0.8,3.2c-0.6,1-1.3,1.7-2.3,2.2s-2,0.8-3.2,0.8
			c-1.1,0-2.2-0.3-3.2-0.8s-1.7-1.3-2.3-2.2c-0.6-1-0.8-2-0.8-3.2c0-1.2,0.3-2.3,0.8-3.2c0.6-1,1.3-1.7,2.3-2.2c1-0.5,2-0.8,3.2-0.8
			C1752,561.9,1753,562.1,1754,562.7z M1748.6,564.2c-0.6,0.4-1.1,0.9-1.5,1.6c-0.4,0.7-0.5,1.4-0.5,2.3c0,0.9,0.2,1.7,0.5,2.3
			c0.4,0.7,0.9,1.2,1.5,1.6c0.6,0.4,1.4,0.6,2.2,0.6c0.8,0,1.5-0.2,2.2-0.6c0.6-0.4,1.1-0.9,1.5-1.6c0.4-0.7,0.5-1.5,0.5-2.3
			c0-0.9-0.2-1.7-0.5-2.3c-0.4-0.7-0.9-1.2-1.5-1.6c-0.6-0.4-1.4-0.5-2.2-0.5C1750,563.7,1749.3,563.9,1748.6,564.2z"/>
		<path d="M1784,562.8c1,0.6,1.8,1.6,2.2,2.7h-2.4c-0.3-0.6-0.8-1.1-1.3-1.4c-0.6-0.3-1.2-0.5-2-0.5c-0.8,0-1.5,0.2-2.2,0.5
			c-0.6,0.4-1.1,0.9-1.5,1.6c-0.4,0.7-0.5,1.4-0.5,2.3c0,0.9,0.2,1.7,0.5,2.3c0.4,0.7,0.9,1.2,1.5,1.6c0.6,0.4,1.4,0.5,2.2,0.5
			c0.7,0,1.4-0.2,2-0.5c0.6-0.3,1-0.8,1.3-1.4h2.4c-0.5,1.2-1.2,2.1-2.2,2.7c-1,0.6-2.2,1-3.5,1c-1.2,0-2.2-0.3-3.2-0.8
			c-1-0.5-1.7-1.3-2.3-2.2c-0.6-1-0.8-2-0.8-3.2c0-1.2,0.3-2.3,0.8-3.2s1.3-1.7,2.3-2.2c1-0.5,2-0.8,3.2-0.8
			C1781.9,561.9,1783,562.2,1784,562.8z"/>
		<path d="M1802.7,562.7c1,0.5,1.7,1.3,2.3,2.2c0.6,1,0.8,2,0.8,3.2c0,1.2-0.3,2.3-0.8,3.2c-0.6,1-1.3,1.7-2.3,2.2s-2,0.8-3.2,0.8
			c-1.1,0-2.2-0.3-3.2-0.8s-1.7-1.3-2.3-2.2c-0.6-1-0.8-2-0.8-3.2c0-1.2,0.3-2.3,0.8-3.2c0.6-1,1.3-1.7,2.3-2.2c1-0.5,2-0.8,3.2-0.8
			C1800.7,561.9,1801.7,562.1,1802.7,562.7z M1797.3,564.2c-0.6,0.4-1.1,0.9-1.5,1.6c-0.4,0.7-0.5,1.4-0.5,2.3
			c0,0.9,0.2,1.7,0.5,2.3c0.4,0.7,0.9,1.2,1.5,1.6c0.6,0.4,1.4,0.6,2.2,0.6c0.8,0,1.5-0.2,2.2-0.6c0.6-0.4,1.1-0.9,1.5-1.6
			c0.4-0.7,0.5-1.5,0.5-2.3c0-0.9-0.2-1.7-0.5-2.3c-0.4-0.7-0.9-1.2-1.5-1.6c-0.6-0.4-1.4-0.5-2.2-0.5
			C1798.7,563.7,1798,563.9,1797.3,564.2z"/>
		<path d="M1823.1,574.3h-2l-6.1-9.2v9.2h-2V562h2l6.1,9.2V562h2V574.3z"/>
		<path d="M1832.3,562l3.6,10.2l3.7-10.2h2.1l-4.6,12.3h-2.3l-4.6-12.3H1832.3z"/>
		<path d="M1850.7,563.6v3.7h4.2v1.6h-4.2v3.9h4.8v1.6h-6.8V562h6.8v1.6H1850.7z"/>
		<path d="M1869.5,574.3l-3.1-5h-1.2v5h-2V562h4.2c0.9,0,1.7,0.2,2.4,0.5c0.7,0.3,1.1,0.8,1.5,1.3c0.3,0.6,0.5,1.2,0.5,1.9
			c0,0.8-0.2,1.6-0.8,2.2c-0.5,0.7-1.3,1.1-2.3,1.3l3.2,5.1H1869.5z M1865.2,567.7h2.2c0.8,0,1.3-0.2,1.7-0.5
			c0.4-0.4,0.6-0.9,0.6-1.5c0-0.7-0.2-1.2-0.6-1.5c-0.4-0.4-0.9-0.5-1.7-0.5h-2.2V567.7z"/>
		<path d="M1887.6,562v1.6h-3.3v10.7h-2v-10.7h-3.3V562H1887.6z"/>
		<path d="M1897,563.6v3.7h4.2v1.6h-4.2v3.9h4.8v1.6h-6.8V562h6.8v1.6H1897z"/>
		<path d="M1915.8,574.3l-3.1-5h-1.2v5h-2V562h4.2c0.9,0,1.7,0.2,2.4,0.5c0.7,0.3,1.1,0.8,1.5,1.3c0.3,0.6,0.5,1.2,0.5,1.9
			c0,0.8-0.2,1.6-0.8,2.2s-1.3,1.1-2.3,1.3l3.2,5.1H1915.8z M1911.5,567.7h2.2c0.8,0,1.3-0.2,1.7-0.5c0.4-0.4,0.6-0.9,0.6-1.5
			c0-0.7-0.2-1.2-0.6-1.5c-0.4-0.4-0.9-0.5-1.7-0.5h-2.2V567.7z"/>
	</g>
	<g>
		<circle cx="1808.8" cy="233.8" r="39.1"/>
		<g>
			<circle cx="1683.7" cy="5" r="9"/>
			<polygon points="1787.4,224.3 1680.6,3.9 1684.1,0.5 1805.7,220.8 1792,231.2 			"/>
		</g>
		<g>
			<circle cx="1917.9" cy="55.9" r="7.2"/>
			<polygon points="1835.4,230.2 1920.2,55 1917.5,52.3 1820.8,227.5 1831.8,235.7 			"/>
		</g>
	</g>
	<path class="st5" d="M1801.5,223.3c-86.1,0-155.9,69.8-155.9,155.9c0,86.1,69.8,155.9,155.9,155.9c86.1,0,155.9-69.8,155.9-155.9
		C1957.3,293,1887.5,223.3,1801.5,223.3L1801.5,223.3z M1907.7,431.2c-2.7,11.7-12.3,20.3-23.8,21.6c-27.3,3.1-54.9,3.1-82.4,3.1
		c-27.5,0-55.1,0-82.4-3.1c-11.5-1.3-21.1-9.9-23.8-21.6c-3.8-16.7-3.8-34.9-3.8-52c0-17.2,0-35.4,3.9-52
		c2.7-11.7,12.3-20.3,23.8-21.6c27.3-3.1,54.9-3.1,82.4-3.1c27.5,0,55.1,0,82.4,3.1c11.5,1.3,21.1,9.9,23.8,21.6
		c3.8,16.7,3.8,34.9,3.8,52C1911.5,396.3,1911.5,414.5,1907.7,431.2L1907.7,431.2z M1907.7,431.2"/>
	<g>
		<path d="M2115.2,357.5c-12.5,7.2-16.7,23.1-9.5,35.6c7.2,12.5,23.1,16.7,35.6,9.5s16.7-23.1,9.5-35.6
			C2143.6,354.5,2127.7,350.3,2115.2,357.5z M2140,382l-16.9,9.8c-1.6,0.9-2.8,0.2-2.8-1.6l-0.1-19.7c0-1.8,1.2-2.5,2.8-1.6
			l17.1,9.9C2141.5,379.6,2141.5,381.1,2140,382z"/>
		<path d="M2128.6,333.6c-0.2,0-0.4,0-0.6,0v0l-0.1,0c-6.3,0.1-12.3,1.4-17.7,3.8l-0.8,0.2c-25.7,11.8-49.3,33.6-81.9,33.6
			s-61.9-14.6-81.6-37.5h-21.2v93h21.1c19.7-23,49-37.7,81.7-37.7c30.5,0,51.4,20.6,78.1,31.4c6.8,3.9,14.6,6.1,23,6.1
			c25.6,0,46.4-20.8,46.4-46.4C2175.1,354.4,2154.3,333.6,2128.6,333.6z M2144.5,408.2c-15.6,9-35.5,3.7-44.5-11.9
			c-9-15.6-3.7-35.5,11.9-44.5c15.6-9,35.5-3.7,44.5,11.9C2165.5,379.3,2160.1,399.3,2144.5,408.2z"/>
	</g>
	<g>
		<path d="M1657.3,333.6c-19.7,23-49,37.5-81.6,37.5c-32.6,0-56.3-21.7-81.9-33.6l-0.8-0.2c-5.4-2.4-11.4-3.7-17.7-3.8l-0.1,0l0,0
			c-0.2,0-0.4,0-0.6,0c-25.6,0-46.4,20.8-46.4,46.4c0,25.6,20.8,46.4,46.4,46.4c8.4,0,16.2-2.2,23-6.1
			c26.7-10.8,47.5-31.4,78.1-31.4c32.7,0,62,14.6,81.7,37.7h21.1v-93H1657.3z M1491.3,408.2c-15.6,9-35.5,3.7-44.5-11.9
			c-9-15.6-3.7-35.5,11.9-44.5c15.6-9,35.5-3.7,44.5,11.9C1512.2,379.3,1506.8,399.3,1491.3,408.2z"/>
		<path d="M1461.9,357.5c-12.5,7.2-16.7,23.1-9.5,35.6c7.2,12.5,23.1,16.7,35.6,9.5c12.5-7.2,16.7-23.1,9.5-35.6
			C1490.3,354.5,1474.4,350.3,1461.9,357.5z M1485.7,385.3L1485.7,385.3c-0.3,2.7-2.6,4.8-5.3,4.8c-2.9,0-5.3-2.4-5.3-5.3
			c0-2.9,2.4-5.3,5.3-5.3c1,0,2,0.3,2.8,0.8v-9.1l-13.6,3.9v14.4c0,2.9-2.4,5.3-5.3,5.3c-2.9,0-5.3-2.4-5.3-5.3
			c0-2.9,2.4-5.3,5.3-5.3c1,0,2,0.3,2.8,0.8v-15.4l18.7-5.4V385.3z"/>
	</g>
	<g>
		<path class="st6" d="M1749.7,485c0.3,0.1,0.5,0.3,0.7,0.5c0.2,0.2,0.4,0.4,0.5,0.7c0.1,0.3,0.2,0.6,0.2,0.9c0,0.3-0.1,0.6-0.2,0.9
			c-0.1,0.3-0.3,0.5-0.5,0.7c-0.2,0.2-0.5,0.4-0.7,0.5c-0.3,0.1-0.6,0.2-0.9,0.2h-8.4v6.1c0,0.3-0.1,0.6-0.2,0.9
			c-0.1,0.3-0.3,0.5-0.5,0.7c-0.2,0.2-0.4,0.4-0.7,0.5c-0.3,0.1-0.6,0.2-0.9,0.2c-0.6,0-1.2-0.2-1.6-0.6c-0.4-0.4-0.6-1-0.6-1.6
			v-16.8c0-0.3,0.1-0.6,0.2-0.9c0.1-0.3,0.3-0.5,0.5-0.7c0.2-0.2,0.4-0.4,0.7-0.5c0.3-0.1,0.6-0.2,0.9-0.2h10.6
			c0.3,0,0.6,0.1,0.9,0.2c0.3,0.1,0.5,0.3,0.7,0.5c0.2,0.2,0.4,0.5,0.5,0.7c0.1,0.3,0.2,0.6,0.2,0.9c0,0.3-0.1,0.6-0.2,0.9
			c-0.1,0.3-0.3,0.5-0.5,0.7c-0.2,0.2-0.5,0.4-0.7,0.5c-0.3,0.1-0.6,0.2-0.9,0.2h-8.4v3.9h8.4C1749.2,484.8,1749.5,484.9,1749.7,485
			z"/>
		<path class="st6" d="M1768.9,495.1c0,0.3-0.1,0.6-0.2,0.8c-0.1,0.3-0.3,0.5-0.5,0.7c-0.2,0.2-0.5,0.4-0.7,0.5
			c-0.3,0.1-0.6,0.2-0.8,0.2c-0.4,0-0.9-0.1-1.2-0.4c-0.4-0.2-0.7-0.6-0.8-1l-1.4-3.4h-7.1l-1.4,3.4c-0.1,0.3-0.3,0.5-0.5,0.7
			c-0.2,0.2-0.5,0.4-0.7,0.5c-0.3,0.1-0.5,0.2-0.8,0.2c-0.3,0-0.6-0.1-0.9-0.2c-0.3-0.1-0.5-0.3-0.7-0.5c-0.2-0.2-0.4-0.5-0.5-0.7
			c-0.1-0.3-0.2-0.5-0.2-0.8s0.1-0.6,0.2-0.9l7-16.8c0.2-0.4,0.4-0.8,0.8-1c0.4-0.3,0.8-0.4,1.2-0.4c0.5,0,0.9,0.1,1.3,0.4
			c0.4,0.3,0.6,0.6,0.8,1l7,16.8C1768.9,494.5,1768.9,494.8,1768.9,495.1z M1759.7,484.1l-1.6,4h3.3L1759.7,484.1z"/>
		<path class="st6" d="M1784.5,491.5c0.2-0.2,0.5-0.4,0.8-0.5c0.3-0.1,0.6-0.1,0.9-0.1c0.3,0,0.6,0.1,0.8,0.2
			c0.3,0.1,0.5,0.3,0.7,0.5c0.2,0.2,0.4,0.5,0.5,0.8c0.1,0.3,0.1,0.6,0.1,0.9c0,0.3-0.1,0.6-0.2,0.8c-0.1,0.3-0.3,0.5-0.5,0.7
			c-1,0.9-2.1,1.6-3.4,2.1c-1.2,0.5-2.5,0.7-3.9,0.7c-1.5,0-2.9-0.3-4.2-0.9c-1.3-0.6-2.5-1.3-3.4-2.3c-1-1-1.7-2.1-2.3-3.4
			c-0.6-1.3-0.9-2.7-0.9-4.2s0.3-2.9,0.9-4.2c0.6-1.3,1.3-2.5,2.3-3.4c1-1,2.1-1.7,3.4-2.3c1.3-0.6,2.7-0.9,4.2-0.9
			c1.4,0,2.7,0.2,3.9,0.7c1.2,0.5,2.4,1.2,3.4,2.1c0.2,0.2,0.4,0.5,0.5,0.7c0.1,0.3,0.2,0.5,0.2,0.8c0,0.3,0,0.6-0.1,0.9
			c-0.1,0.3-0.2,0.5-0.5,0.8c-0.2,0.2-0.5,0.4-0.7,0.5c-0.3,0.1-0.5,0.2-0.8,0.2c-0.3,0-0.6,0-0.9-0.1c-0.3-0.1-0.5-0.2-0.8-0.5
			c-0.6-0.5-1.2-0.9-1.9-1.2c-0.7-0.3-1.5-0.4-2.3-0.4c-0.9,0-1.7,0.2-2.4,0.5c-0.8,0.3-1.4,0.8-2,1.3c-0.6,0.6-1,1.2-1.3,2
			c-0.3,0.8-0.5,1.6-0.5,2.4c0,0.9,0.2,1.7,0.5,2.4c0.3,0.8,0.8,1.4,1.3,2c0.6,0.6,1.2,1,2,1.3c0.8,0.3,1.6,0.5,2.4,0.5
			c0.8,0,1.5-0.1,2.3-0.4C1783.3,492.5,1783.9,492.1,1784.5,491.5z"/>
		<path class="st6" d="M1806.9,476.7c0.3,0.1,0.5,0.3,0.7,0.5c0.2,0.2,0.3,0.4,0.5,0.7c0.1,0.3,0.2,0.6,0.2,0.9
			c0,0.3-0.1,0.6-0.2,0.9c-0.1,0.3-0.3,0.5-0.5,0.7c-0.2,0.2-0.4,0.4-0.7,0.5c-0.3,0.1-0.6,0.2-0.9,0.2h-4.1v14.3
			c0,0.3-0.1,0.6-0.2,0.9c-0.1,0.3-0.3,0.5-0.5,0.7c-0.2,0.2-0.4,0.3-0.7,0.5c-0.3,0.1-0.6,0.2-0.9,0.2c-0.3,0-0.6-0.1-0.9-0.2
			s-0.5-0.3-0.7-0.5c-0.2-0.2-0.4-0.4-0.5-0.7c-0.1-0.3-0.2-0.6-0.2-0.9v-14.3h-4.1c-0.3,0-0.6-0.1-0.9-0.2
			c-0.3-0.1-0.5-0.3-0.7-0.5c-0.2-0.2-0.3-0.4-0.5-0.7c-0.1-0.3-0.2-0.6-0.2-0.9c0-0.3,0.1-0.6,0.2-0.9c0.1-0.3,0.3-0.5,0.5-0.7
			c0.2-0.2,0.4-0.3,0.7-0.5c0.3-0.1,0.6-0.2,0.9-0.2h12.6C1806.3,476.5,1806.6,476.5,1806.9,476.7z"/>
		<path class="st6" d="M1818.9,476.1c1.5,0,2.9,0.3,4.2,0.9c1.3,0.6,2.5,1.3,3.4,2.3c1,1,1.7,2.1,2.3,3.4c0.6,1.3,0.9,2.7,0.9,4.2
			c0,1-0.1,2-0.4,2.9c-0.3,0.9-0.6,1.8-1.1,2.6c-0.5,0.8-1,1.5-1.7,2.2s-1.4,1.2-2.2,1.7c-0.8,0.5-1.7,0.8-2.6,1.1
			c-0.9,0.3-1.9,0.4-2.9,0.4c-1,0-2-0.1-2.9-0.4c-0.9-0.3-1.8-0.6-2.6-1.1c-0.8-0.5-1.5-1-2.2-1.7s-1.2-1.4-1.7-2.2
			c-0.5-0.8-0.8-1.7-1.1-2.6c-0.3-0.9-0.4-1.9-0.4-2.9c0-1,0.1-2,0.4-2.9c0.3-0.9,0.6-1.8,1.1-2.6c0.5-0.8,1-1.5,1.7-2.2
			c0.7-0.7,1.4-1.2,2.2-1.7c0.8-0.5,1.7-0.8,2.6-1.1C1817,476.2,1817.9,476.1,1818.9,476.1z M1825.2,486.9c0-0.9-0.2-1.7-0.5-2.4
			c-0.3-0.8-0.8-1.4-1.3-2c-0.6-0.6-1.2-1-2-1.3c-0.8-0.3-1.6-0.5-2.4-0.5c-0.9,0-1.7,0.2-2.4,0.5c-0.8,0.3-1.4,0.8-2,1.3
			c-0.6,0.6-1,1.2-1.3,2c-0.3,0.8-0.5,1.6-0.5,2.4c0,0.9,0.2,1.7,0.5,2.4c0.3,0.8,0.8,1.4,1.3,2c0.6,0.6,1.2,1,2,1.3
			c0.8,0.3,1.6,0.5,2.4,0.5c0.9,0,1.7-0.2,2.4-0.5c0.8-0.3,1.4-0.8,2-1.3c0.6-0.6,1-1.2,1.3-2C1825,488.6,1825.2,487.8,1825.2,486.9
			z"/>
		<path class="st6" d="M1848.6,494.1c0.2,0.2,0.3,0.5,0.4,0.8c0.1,0.3,0.1,0.6,0.1,0.9c0,0.3-0.1,0.6-0.3,0.9
			c-0.2,0.4-0.5,0.7-0.8,0.9c-0.4,0.2-0.7,0.3-1.1,0.3c-0.3,0-0.7-0.1-1.1-0.3l-8.7-4.8v2.9c0,0.3-0.1,0.6-0.2,0.9
			c-0.1,0.3-0.3,0.5-0.5,0.7c-0.2,0.2-0.4,0.4-0.7,0.5c-0.3,0.1-0.6,0.2-0.9,0.2c-0.3,0-0.6-0.1-0.9-0.2c-0.3-0.1-0.5-0.3-0.7-0.5
			c-0.2-0.2-0.4-0.4-0.5-0.7s-0.2-0.6-0.2-0.9v-6.7v-0.1v-10c0-0.3,0.1-0.6,0.2-0.9c0.1-0.3,0.3-0.5,0.5-0.7
			c0.2-0.2,0.4-0.4,0.7-0.5c0.3-0.1,0.6-0.2,0.9-0.2h6.4c1.1,0,2.1,0.2,3.1,0.6c1,0.4,1.8,0.9,2.5,1.5c0.7,0.6,1.2,1.4,1.6,2.3
			c0.4,0.9,0.6,1.8,0.6,2.9c0,0.9-0.1,1.7-0.4,2.5c-0.3,0.8-0.7,1.5-1.2,2.1c-0.5,0.6-1.2,1.1-1.9,1.6c-0.7,0.4-1.5,0.7-2.4,0.9
			l4.8,2.7C1848.1,493.6,1848.4,493.8,1848.6,494.1z M1844.6,483.7c0-0.5-0.1-0.9-0.3-1.2c-0.2-0.4-0.4-0.6-0.8-0.9
			c-0.3-0.2-0.7-0.4-1.1-0.5c-0.4-0.1-0.8-0.2-1.2-0.2h-4.2v5.6h4.2c0.4,0,0.8-0.1,1.2-0.2c0.4-0.1,0.8-0.3,1.1-0.5
			c0.3-0.2,0.6-0.5,0.8-0.9C1844.5,484.6,1844.6,484.2,1844.6,483.7z"/>
		<path class="st6" d="M1869.2,476.6c0.2,0.2,0.4,0.4,0.6,0.7c0.1,0.3,0.2,0.5,0.3,0.8c0,0.3,0,0.6-0.1,0.9
			c-0.1,0.3-0.2,0.6-0.4,0.8l-6.3,7.9v7.7c0,0.3-0.1,0.6-0.2,0.9c-0.1,0.3-0.3,0.5-0.5,0.7c-0.2,0.2-0.4,0.4-0.7,0.5
			c-0.3,0.1-0.6,0.2-0.9,0.2c-0.3,0-0.6-0.1-0.9-0.2c-0.3-0.1-0.5-0.3-0.7-0.5c-0.2-0.2-0.4-0.5-0.5-0.7c-0.1-0.3-0.2-0.6-0.2-0.9
			v-7.7l-6.2-7.9c-0.2-0.2-0.3-0.5-0.4-0.8c-0.1-0.3-0.1-0.6-0.1-0.9c0-0.3,0.1-0.6,0.3-0.8s0.3-0.5,0.6-0.7
			c0.2-0.2,0.5-0.3,0.8-0.4c0.3-0.1,0.6-0.1,0.9-0.1c0.3,0,0.6,0.1,0.8,0.3c0.3,0.1,0.5,0.3,0.7,0.6l4.9,6.3l5-6.3
			c0.2-0.2,0.4-0.4,0.7-0.6c0.3-0.1,0.5-0.2,0.8-0.3s0.6,0,0.9,0.1C1868.7,476.3,1869,476.4,1869.2,476.6z"/>
	</g>
</g>
</svg>
